<svg xmlns="http://www.w3.org/2000/svg" width="160" height="112" viewBox="0 0 160 112"><path d="M60 20 L41 26 L19 59 L38 73 L47 56 L44 100 L116 100 L113 56 L123 73 L141 59 L119 26 L100 20 L80 36 Z" fill="#78bbc2" stroke="#232532" stroke-width="4" stroke-linecap="round" stroke-linejoin="round"/><path d="M61 21 L80 37 L68 49 L57 31 M99 21 L80 37 L92 49 L103 31 M80 39 L80 99" fill="none" stroke="#232532" stroke-width="3" stroke-linecap="round" stroke-linejoin="round"/><path d="M30 41 L43 49 M118 49 L131 41" fill="none" stroke="#fff6df" stroke-width="6" stroke-linecap="round" stroke-linejoin="round"/><path d="M30 54 L43 62 M118 62 L131 54" fill="none" stroke="#fff6df" stroke-width="6" stroke-linecap="round" stroke-linejoin="round"/><path d="M30 68 L43 76 M118 76 L131 68" fill="none" stroke="#fff6df" stroke-width="6" stroke-linecap="round" stroke-linejoin="round"/><path d="M91 63 L106 63 L105 79 L92 79 Z" fill="none" stroke="#232532" stroke-width="2" stroke-linecap="round" stroke-linejoin="round"/><ellipse cx="80" cy="54" rx="2" ry="2" fill="#232532" stroke="#232532" stroke-width="0"/><ellipse cx="80" cy="70" rx="2" ry="2" fill="#232532" stroke="#232532" stroke-width="0"/><ellipse cx="80" cy="87" rx="2" ry="2" fill="#232532" stroke="#232532" stroke-width="0"/></svg>
