<svg xmlns="http://www.w3.org/2000/svg" width="160" height="112" viewBox="0 0 160 112"><path d="M49 26 Q78 9 109 26 L110 66 Q108 91 81 99 Q51 93 48 67 Z" fill="#efb28e" stroke="#232532" stroke-width="4" stroke-linecap="round" stroke-linejoin="round"/><path d="M54 41 Q61 36 68 40 M88 39 Q98 35 104 42" fill="none" stroke="#232532" stroke-width="5" stroke-linecap="round" stroke-linejoin="round"/><path d="M55 53 Q62 57 69 53 M88 53 Q96 57 104 53" fill="none" stroke="#232532" stroke-width="4" stroke-linecap="round" stroke-linejoin="round"/><path d="M79 54 L76 69 L83 69 M67 80 Q79 85 91 80" fill="none" stroke="#232532" stroke-width="4" stroke-linecap="round" stroke-linejoin="round"/><path d="M47 45 L47 24 Q68 6 106 22 L113 42 L97 29 L82 31 L65 26 L54 45 Z" fill="#645064" stroke="#232532" stroke-width="4" stroke-linecap="round" stroke-linejoin="round"/></svg>
